<svg data-v-423bf9ae="" xmlns="http://www.w3.org/2000/svg" viewBox="0 0 430 90" class="iconLeftSlogan"><g data-v-423bf9ae="" id="daecd9c6-7c9e-4b91-bb39-d20ec08858ff" fill="black" transform="matrix(5.6980053264473165,0,0,5.6980053264473165,105.78347462474056,-22.735042022120943)"><path d="M0.74 14.35L7.50 14.35L7.50 12.01L6.73 12.01L6.73 13.80L2.77 13.80L2.77 5.08L3.89 5.08L3.89 4.58L0.74 4.58L0.74 5.08L1.86 5.08L1.86 13.85L0.74 13.85ZM12.19 14.52C13.71 14.52 14.60 13.61 14.98 12.71L14.60 12.49C14.20 13.24 13.51 13.85 12.32 13.85C10.89 13.85 9.94 12.84 9.94 11.06L9.94 10.63L15.13 10.63L15.13 10.37C15.13 8.41 14 7.01 12.17 7.01C10.30 7.01 8.97 8.47 8.97 10.77C8.97 13.13 10.21 14.52 12.19 14.52ZM9.94 10.05C9.94 8.58 10.77 7.53 12.17 7.53C13.54 7.53 14.21 8.61 14.21 10.04L14.21 10.14L9.94 10.14ZM18.51 14.41C19.07 14.41 19.89 14.32 20.24 14.20L20.24 13.80L18.31 13.80L18.31 7.73L20.24 7.73L20.24 7.18L18.31 7.18L18.31 5.25L17.81 5.25L17.58 6.58C17.50 7.00 17.36 7.18 16.67 7.18L16.48 7.18L16.48 7.73L17.44 7.73L17.44 13.40C17.44 14.14 17.70 14.41 18.51 14.41ZM22.41 7.74L22.75 7.74L22.97 5.31L22.97 3.99L22.19 3.99L22.19 5.31ZM27.68 14.52C29.26 14.52 30.21 13.68 30.21 12.47C30.21 11.26 29.46 10.67 28.08 10.36L27.34 10.21C26.46 10.01 25.93 9.60 25.93 8.81C25.93 7.97 26.57 7.56 27.62 7.56C28.73 7.56 29.33 7.97 29.33 8.79L29.33 9.30L30.00 9.30L30.00 7.18L29.33 7.18L29.33 7.83L29.29 7.83C29.08 7.38 28.48 7.01 27.51 7.01C26.08 7.01 25.12 7.73 25.12 8.95C25.12 10.18 25.87 10.78 27.20 11.06L27.97 11.23C28.88 11.42 29.37 11.84 29.37 12.63C29.37 13.54 28.70 13.97 27.54 13.97C26.36 13.97 25.73 13.47 25.73 12.60L25.73 12.24L25.06 12.24L25.06 14.35L25.73 14.35L25.73 13.61L25.77 13.61C26.03 14.08 26.70 14.52 27.68 14.52ZM38.23 14.52C39.75 14.52 40.64 13.61 41.02 12.71L40.64 12.49C40.24 13.24 39.55 13.85 38.36 13.85C36.93 13.85 35.98 12.84 35.98 11.06L35.98 10.63L41.17 10.63L41.17 10.37C41.17 8.41 40.04 7.01 38.21 7.01C36.34 7.01 35.01 8.47 35.01 10.77C35.01 13.13 36.25 14.52 38.23 14.52ZM35.98 10.05C35.98 8.58 36.81 7.53 38.21 7.53C39.58 7.53 40.25 8.61 40.25 10.04L40.25 10.14L35.98 10.14ZM44.87 14.52C46.20 14.52 46.79 13.86 47.05 13.22L47.11 13.22L47.11 13.55C47.11 14.15 47.43 14.49 48.09 14.49C48.45 14.49 48.86 14.39 49.06 14.27L49.06 13.89L47.95 13.89L47.95 9.23C47.95 7.81 47.03 7.01 45.53 7.01C43.97 7.01 42.98 7.71 42.98 8.44C42.98 8.86 43.23 9.10 43.61 9.10C44.00 9.10 44.25 8.86 44.25 8.46C44.25 8.13 44.06 7.95 43.85 7.85L43.85 7.83C44.13 7.64 44.62 7.52 45.26 7.52C46.45 7.52 47.08 8.16 47.08 9.35L47.08 10.49L45.85 10.49C43.53 10.49 42.66 11.20 42.66 12.59C42.66 13.76 43.48 14.52 44.87 14.52ZM45.19 13.93C44.17 13.93 43.60 13.45 43.60 12.70L43.60 12.39C43.60 11.45 44.16 10.93 45.96 10.93L47.08 10.93L47.08 12.35C47.08 13.33 46.26 13.93 45.19 13.93ZM52.07 14.41C52.63 14.41 53.45 14.32 53.80 14.20L53.80 13.80L51.87 13.80L51.87 7.73L53.80 7.73L53.80 7.18L51.87 7.18L51.87 5.25L51.37 5.25L51.14 6.58C51.06 7.00 50.92 7.18 50.23 7.18L50.04 7.18L50.04 7.73L51.00 7.73L51.00 13.40C51.00 14.14 51.25 14.41 52.07 14.41ZM56.13 14.48C56.57 14.48 56.85 14.17 56.85 13.78L56.85 13.72C56.85 13.33 56.57 13.02 56.14 13.02C55.69 13.02 55.41 13.33 55.41 13.72L55.41 13.78C55.41 14.17 55.69 14.48 56.13 14.48ZM55.94 11.82L56.32 11.82L56.57 7.85L56.57 4.58L55.69 4.58L55.69 7.85Z"></path></g><g data-v-423bf9ae="" id="9ff8143a-5e8c-43cf-a57f-16cb88d6519f" transform="matrix(2.8125,0,0,2.8125,0,0)" stroke="none" fill="black"><path d="M11.579 32H32L21.789 14.314z"></path></g><g data-v-423bf9ae="" id="0bcd69f8-9e9b-4494-8364-f32d7b87ca6a" fill="black" transform="matrix(1.145265062418041,0,0,1.145265062418041,109.19831774146252,55.52201297052285)"><path d="M1.89 3.92L0.70 3.92L0.70 4.19C0.70 4.34 0.80 4.42 0.98 4.44L1.12 4.44C1.19 4.44 1.29 4.45 1.43 4.45C1.57 4.45 1.72 4.47 1.89 4.47L1.89 13.26C1.72 13.26 1.57 13.27 1.43 13.27C1.29 13.27 1.19 13.29 1.12 13.29L0.98 13.29C0.80 13.30 0.71 13.38 0.71 13.54L0.71 13.82L1.89 13.82L7.83 13.82L7.83 13.22L7.83 11.76L7.48 11.76C7.28 11.76 7.20 11.89 7.18 12.11C7.18 12.14 7.17 12.19 7.17 12.29C7.17 12.39 7.17 12.53 7.15 12.74C7.14 12.95 7.13 13.09 7.13 13.22L2.60 13.22L2.60 9.09L6.55 9.09L6.55 8.51L2.60 8.51L2.60 4.51L7.13 4.51C7.15 5.12 7.18 5.50 7.18 5.63C7.20 5.85 7.28 5.96 7.48 5.96L7.83 5.96L7.83 4.51L7.83 3.92ZM25.70 13.22L25.24 13.17L21.46 3.91L20.75 3.91L16.95 13.17L16.51 13.22C16.32 13.23 16.24 13.33 16.24 13.50L16.24 13.82L16.69 13.82L16.98 13.82L17.23 13.82L17.33 13.82L18.65 13.82L18.65 13.50C18.65 13.31 18.54 13.23 18.33 13.22C18.31 13.22 18.28 13.20 18.24 13.20C18.20 13.20 18.14 13.19 18.05 13.19C17.95 13.19 17.82 13.19 17.68 13.17L18.66 10.75L18.73 10.57L23.46 10.57L23.53 10.75L24.51 13.17C24.37 13.19 24.26 13.19 24.16 13.19C24.07 13.19 24.00 13.20 23.95 13.20C23.91 13.20 23.88 13.22 23.87 13.22C23.66 13.23 23.55 13.31 23.55 13.50L23.55 13.82L24.86 13.82L24.96 13.82L25.23 13.82L25.51 13.82L25.97 13.82L25.97 13.50C25.97 13.33 25.89 13.23 25.70 13.22ZM20.90 5.22C20.93 5.14 20.97 5.04 21 4.94C21.03 4.84 21.07 4.75 21.10 4.63C21.13 4.75 21.17 4.84 21.20 4.94C21.22 5.04 21.27 5.12 21.29 5.21L23.25 10.04L18.96 10.04ZM41.72 3.92L41.52 3.92L34.23 3.92L34.02 3.92L33.92 3.92L33.92 5.96L34.27 5.96C34.47 5.96 34.55 5.85 34.57 5.63C34.57 5.53 34.59 5.17 34.62 4.52L37.52 4.52L37.52 13.26C37.35 13.26 37.21 13.27 37.07 13.27C36.93 13.27 36.82 13.29 36.75 13.29L36.62 13.29C36.44 13.30 36.34 13.38 36.34 13.54L36.34 13.82L37.52 13.82L38.23 13.82L39.42 13.82L39.42 13.54C39.42 13.38 39.33 13.30 39.14 13.29L39.00 13.29C38.93 13.29 38.84 13.27 38.70 13.27C38.56 13.27 38.40 13.26 38.23 13.26L38.23 4.52L41.12 4.52C41.16 5.24 41.17 5.60 41.17 5.63C41.19 5.85 41.29 5.96 41.48 5.96L41.82 5.96L41.82 3.92ZM69.30 6.80C69.08 6.19 68.75 5.68 68.33 5.25C67.91 4.82 67.42 4.48 66.85 4.26C66.28 4.03 65.62 3.92 64.92 3.92L61.49 3.92L60.30 3.92L60.30 4.19C60.30 4.34 60.40 4.42 60.58 4.44L60.72 4.44C60.79 4.44 60.89 4.45 61.03 4.45C61.17 4.45 61.32 4.47 61.49 4.47L61.49 13.26C61.32 13.26 61.17 13.27 61.03 13.27C60.89 13.27 60.79 13.29 60.72 13.29L60.58 13.29C60.40 13.30 60.30 13.38 60.30 13.54L60.30 13.82L61.49 13.82L64.92 13.82C65.62 13.82 66.28 13.71 66.85 13.48C67.42 13.26 67.91 12.92 68.33 12.49C68.75 12.05 69.08 11.54 69.30 10.92C69.52 10.30 69.65 9.63 69.65 8.86C69.65 8.11 69.52 7.42 69.30 6.80ZM68.61 10.72C68.42 11.27 68.17 11.72 67.82 12.10C67.47 12.47 67.05 12.75 66.56 12.95C66.07 13.15 65.52 13.24 64.92 13.24L62.20 13.24L62.20 4.49L64.92 4.49C65.52 4.49 66.07 4.59 66.56 4.79C67.05 4.98 67.47 5.26 67.82 5.64C68.17 6.02 68.42 6.47 68.61 7.01C68.81 7.56 68.91 8.18 68.91 8.86C68.91 9.56 68.81 10.18 68.61 10.72ZM85.93 13.29L85.83 13.29L85.65 13.29C85.57 13.29 85.48 13.27 85.40 13.27L82.43 9.53C82.35 9.42 82.24 9.32 82.12 9.25C82.56 9.21 82.95 9.11 83.30 8.96C83.65 8.81 83.93 8.61 84.18 8.37C84.42 8.13 84.62 7.85 84.74 7.55C84.87 7.24 84.94 6.89 84.94 6.51C84.94 5.66 84.66 5.03 84.10 4.58C83.54 4.14 82.68 3.92 81.54 3.92L79.13 3.92L77.95 3.92L77.95 4.19C77.95 4.34 78.04 4.42 78.22 4.44L78.36 4.44C78.43 4.44 78.53 4.45 78.67 4.45C78.81 4.45 78.96 4.47 79.13 4.47L79.13 13.26C78.96 13.26 78.81 13.27 78.67 13.27C78.53 13.27 78.43 13.29 78.36 13.29L78.22 13.29C78.04 13.30 77.94 13.38 77.94 13.54L77.94 13.82L79.13 13.82L79.84 13.82L81.02 13.82L81.02 13.54C81.02 13.38 80.92 13.30 80.74 13.29L80.60 13.29C80.53 13.29 80.43 13.27 80.29 13.27C80.15 13.27 80.01 13.26 79.84 13.26L79.84 9.34L81.02 9.34C81.21 9.34 81.35 9.35 81.44 9.39C81.52 9.44 81.61 9.52 81.69 9.62L84.87 13.64C84.92 13.71 84.97 13.75 85.02 13.78C85.08 13.80 85.15 13.82 85.22 13.82L85.29 13.82L85.83 13.82L86.20 13.82L86.20 13.54C86.20 13.38 86.11 13.30 85.93 13.29ZM81.44 8.81L79.84 8.81L79.84 4.48L81.54 4.48C82.42 4.48 83.09 4.66 83.55 5.00C84.01 5.33 84.24 5.87 84.24 6.57C84.24 6.92 84.18 7.21 84.06 7.49C83.93 7.77 83.73 7.99 83.50 8.19C83.26 8.39 82.96 8.55 82.61 8.65C82.26 8.75 81.87 8.81 81.44 8.81ZM97.22 4.44C97.40 4.42 97.48 4.34 97.48 4.19L97.48 3.91L96.31 3.91L95.59 3.91L94.40 3.91L94.40 4.19C94.40 4.34 94.50 4.42 94.68 4.44L94.82 4.44C94.89 4.44 94.99 4.45 95.13 4.45C95.27 4.45 95.42 4.47 95.59 4.47L95.59 13.26C95.42 13.26 95.27 13.27 95.13 13.27C94.99 13.27 94.89 13.29 94.82 13.29L94.68 13.29C94.50 13.30 94.40 13.38 94.40 13.54L94.40 13.82L95.59 13.82L96.31 13.82L97.48 13.82L97.48 13.54C97.48 13.38 97.40 13.30 97.22 13.29L97.08 13.29C97.01 13.29 96.91 13.27 96.77 13.27C96.63 13.27 96.47 13.26 96.31 13.26L96.31 4.47C96.47 4.47 96.63 4.45 96.77 4.45C96.91 4.45 97.01 4.44 97.08 4.44ZM114.66 3.92L114.03 3.92L112.81 3.92L112.81 4.19C112.81 4.34 112.91 4.42 113.09 4.44L113.23 4.44C113.30 4.44 113.41 4.45 113.55 4.45C113.69 4.45 113.86 4.47 114.03 4.47L114.03 12.22C114.03 12.35 114.03 12.49 114.04 12.63L107.63 4.05C107.59 3.99 107.56 3.95 107.52 3.93C107.48 3.92 107.44 3.91 107.37 3.91L107.02 3.91L105.83 3.91L105.83 4.19C105.83 4.34 105.92 4.42 106.11 4.44L106.25 4.44C106.32 4.44 106.41 4.45 106.55 4.45C106.69 4.45 106.85 4.47 107.02 4.47L107.02 13.26C106.85 13.26 106.69 13.27 106.55 13.27C106.41 13.27 106.32 13.29 106.25 13.29L106.11 13.29C105.92 13.30 105.83 13.38 105.83 13.54L105.83 13.82L107.02 13.82L107.63 13.82L108.85 13.82L108.85 13.54C108.85 13.38 108.75 13.30 108.57 13.29L108.43 13.29C108.36 13.29 108.23 13.27 108.09 13.27C107.95 13.27 107.80 13.26 107.63 13.26L107.63 5.49C107.63 5.36 107.63 5.22 107.62 5.08L114.06 13.68C114.13 13.78 114.20 13.82 114.31 13.82L114.66 13.82L114.66 4.47C114.83 4.47 114.97 4.45 115.11 4.45C115.25 4.45 115.36 4.44 115.43 4.44L115.56 4.44C115.74 4.42 115.84 4.34 115.84 4.19L115.84 3.92ZM132.37 13.29L132.29 13.29L132.10 13.29C132.02 13.29 131.92 13.27 131.82 13.27L127.79 9.06C127.71 8.96 127.64 8.89 127.55 8.83C127.47 8.78 127.39 8.74 127.29 8.71C127.37 8.68 127.44 8.64 127.51 8.58C127.58 8.53 127.67 8.46 127.75 8.36L131.54 4.45L131.81 4.45C131.89 4.45 131.95 4.44 131.99 4.44L132.08 4.44C132.26 4.42 132.36 4.34 132.36 4.19L132.36 3.91L131.38 3.91L131.25 3.91L129.44 3.91L129.44 4.19C129.44 4.34 129.54 4.42 129.72 4.44L129.89 4.44C129.99 4.44 130.12 4.45 130.28 4.45L130.73 4.45L127.06 8.22C127.01 8.27 126.95 8.33 126.91 8.36C126.87 8.39 126.81 8.40 126.76 8.43C126.70 8.44 126.66 8.47 126.59 8.47C126.52 8.48 126.43 8.48 126.35 8.48L125.76 8.48L125.76 4.45C125.93 4.45 126.08 4.44 126.22 4.44C126.36 4.44 126.46 4.42 126.53 4.42L126.67 4.42C126.85 4.41 126.94 4.33 126.94 4.17L126.94 3.91L125.76 3.91L125.05 3.91L123.87 3.91L123.87 4.17C123.87 4.33 123.97 4.41 124.15 4.42L124.28 4.42C124.35 4.42 124.46 4.44 124.60 4.44C124.74 4.44 124.88 4.45 125.05 4.45L125.05 13.26C124.88 13.26 124.74 13.27 124.60 13.27C124.46 13.27 124.35 13.29 124.28 13.29L124.15 13.29C123.97 13.30 123.87 13.38 123.87 13.54L123.87 13.82L125.05 13.82L125.76 13.82L126.94 13.82L126.94 13.54C126.94 13.38 126.85 13.30 126.67 13.29L126.53 13.29C126.46 13.29 126.36 13.27 126.22 13.27C126.08 13.27 125.93 13.26 125.76 13.26L125.76 9.04L126.41 9.04C126.52 9.04 126.62 9.04 126.69 9.06C126.76 9.07 126.81 9.09 126.87 9.11C126.92 9.14 126.98 9.17 127.02 9.21C127.06 9.25 127.11 9.28 127.16 9.34L131.01 13.27C130.87 13.27 130.70 13.29 130.54 13.29L130.13 13.29L129.95 13.29C129.77 13.30 129.67 13.38 129.67 13.54L129.67 13.82L131.54 13.82L131.60 13.82L131.77 13.82L132.36 13.82L132.65 13.82L132.65 13.54C132.65 13.38 132.55 13.30 132.37 13.29ZM157.53 4.68C156.94 4.17 156.06 3.92 154.90 3.92L152.49 3.92L151.30 3.92L151.30 4.19C151.30 4.34 151.40 4.42 151.58 4.44L151.72 4.44C151.79 4.44 151.89 4.45 152.03 4.45C152.17 4.45 152.32 4.47 152.49 4.47L152.49 13.26C152.32 13.26 152.17 13.27 152.03 13.27C151.89 13.27 151.79 13.29 151.72 13.29L151.58 13.29C151.40 13.30 151.30 13.38 151.30 13.54L151.30 13.82L152.49 13.82L153.20 13.82L154.38 13.82L154.38 13.54C154.38 13.38 154.28 13.30 154.10 13.29L153.97 13.29C153.90 13.29 153.79 13.27 153.65 13.27C153.51 13.27 153.37 13.26 153.20 13.26L153.20 9.83L154.90 9.83C155.44 9.83 155.93 9.74 156.37 9.60C156.80 9.45 157.16 9.25 157.47 8.99C157.78 8.72 158.02 8.41 158.17 8.05C158.34 7.69 158.41 7.29 158.41 6.86C158.41 5.92 158.12 5.18 157.53 4.68ZM157.50 7.81C157.37 8.11 157.19 8.36 156.95 8.57C156.72 8.78 156.42 8.95 156.07 9.07C155.72 9.20 155.33 9.25 154.90 9.25L153.20 9.25L153.20 4.48L154.90 4.48C155.82 4.48 156.52 4.69 157.00 5.10C157.46 5.50 157.70 6.09 157.70 6.85C157.70 7.20 157.63 7.52 157.50 7.81ZM175.07 13.22L174.61 13.17L170.83 3.91L170.11 3.91L166.32 13.17L165.87 13.22C165.69 13.23 165.61 13.33 165.61 13.50L165.61 13.82L166.05 13.82L166.35 13.82L166.60 13.82L166.70 13.82L168.01 13.82L168.01 13.50C168.01 13.31 167.90 13.23 167.69 13.22C167.68 13.22 167.65 13.20 167.61 13.20C167.57 13.20 167.51 13.19 167.41 13.19C167.31 13.19 167.19 13.19 167.05 13.17L168.03 10.75L168.10 10.57L172.83 10.57L172.90 10.75L173.88 13.17C173.74 13.19 173.63 13.19 173.53 13.19C173.43 13.19 173.36 13.20 173.32 13.20C173.28 13.20 173.25 13.22 173.24 13.22C173.03 13.23 172.91 13.31 172.91 13.50L172.91 13.82L174.23 13.82L174.33 13.82L174.59 13.82L174.87 13.82L175.34 13.82L175.34 13.50C175.34 13.33 175.25 13.23 175.07 13.22ZM170.27 5.22C170.30 5.14 170.34 5.04 170.37 4.94C170.39 4.84 170.44 4.75 170.46 4.63C170.49 4.75 170.53 4.84 170.56 4.94C170.59 5.04 170.63 5.12 170.66 5.21L172.62 10.04L168.32 10.04ZM191.56 13.29L191.46 13.29L191.28 13.29C191.20 13.29 191.11 13.27 191.03 13.27L188.06 9.53C187.98 9.42 187.87 9.32 187.75 9.25C188.19 9.21 188.58 9.11 188.93 8.96C189.28 8.81 189.56 8.61 189.81 8.37C190.05 8.13 190.25 7.85 190.37 7.55C190.50 7.24 190.57 6.89 190.57 6.51C190.57 5.66 190.29 5.03 189.73 4.58C189.17 4.14 188.31 3.92 187.17 3.92L184.76 3.92L183.58 3.92L183.58 4.19C183.58 4.34 183.67 4.42 183.85 4.44L183.99 4.44C184.06 4.44 184.16 4.45 184.30 4.45C184.44 4.45 184.59 4.47 184.76 4.47L184.76 13.26C184.59 13.26 184.44 13.27 184.30 13.27C184.16 13.27 184.06 13.29 183.99 13.29L183.85 13.29C183.67 13.30 183.57 13.38 183.57 13.54L183.57 13.82L184.76 13.82L185.47 13.82L186.65 13.82L186.65 13.54C186.65 13.38 186.55 13.30 186.37 13.29L186.23 13.29C186.16 13.29 186.06 13.27 185.92 13.27C185.78 13.27 185.64 13.26 185.47 13.26L185.47 9.34L186.65 9.34C186.84 9.34 186.98 9.35 187.07 9.39C187.15 9.44 187.24 9.52 187.32 9.62L190.50 13.64C190.55 13.71 190.60 13.75 190.65 13.78C190.71 13.80 190.78 13.82 190.85 13.82L190.92 13.82L191.46 13.82L191.83 13.82L191.83 13.54C191.83 13.38 191.74 13.30 191.56 13.29ZM187.07 8.81L185.47 8.81L185.47 4.48L187.17 4.48C188.05 4.48 188.72 4.66 189.18 5.00C189.64 5.33 189.87 5.87 189.87 6.57C189.87 6.92 189.81 7.21 189.69 7.49C189.56 7.77 189.36 7.99 189.13 8.19C188.89 8.39 188.59 8.55 188.24 8.65C187.89 8.75 187.50 8.81 187.07 8.81ZM207.24 3.92L207.05 3.92L199.75 3.92L199.54 3.92L199.44 3.92L199.44 5.96L199.79 5.96C199.99 5.96 200.07 5.85 200.09 5.63C200.09 5.53 200.12 5.17 200.14 4.52L203.04 4.52L203.04 13.26C202.87 13.26 202.73 13.27 202.59 13.27C202.45 13.27 202.34 13.29 202.27 13.29L202.15 13.29C201.96 13.30 201.87 13.38 201.87 13.54L201.87 13.82L203.04 13.82L203.76 13.82L204.95 13.82L204.95 13.54C204.95 13.38 204.85 13.30 204.67 13.29L204.53 13.29C204.46 13.29 204.36 13.27 204.22 13.27C204.08 13.27 203.92 13.26 203.76 13.26L203.76 4.52L206.64 4.52C206.68 5.24 206.70 5.60 206.70 5.63C206.71 5.85 206.81 5.96 207.00 5.96L207.34 5.96L207.34 3.92ZM223.58 3.92L223.51 3.92L222.95 3.92L222.84 3.92L221.44 3.92L221.44 4.19C221.44 4.34 221.54 4.42 221.72 4.44L221.83 4.44C221.89 4.44 221.96 4.45 222.07 4.45C222.18 4.45 222.31 4.47 222.45 4.47L219.86 8.64C219.79 8.75 219.73 8.85 219.69 8.95C219.65 9.04 219.60 9.16 219.56 9.25C219.52 9.16 219.48 9.04 219.44 8.95C219.39 8.85 219.34 8.75 219.27 8.64L216.66 4.47C216.80 4.47 216.93 4.45 217.04 4.45C217.15 4.45 217.24 4.44 217.29 4.44L217.39 4.44C217.57 4.42 217.67 4.34 217.67 4.19L217.67 3.92L216.27 3.92L216.16 3.92L215.60 3.92L215.53 3.92L215.08 3.92L215.08 4.19C215.08 4.34 215.18 4.42 215.36 4.44C215.60 4.45 215.78 4.47 215.88 4.47L219.20 9.73L219.20 13.26C219.03 13.26 218.88 13.27 218.74 13.27C218.60 13.27 218.50 13.29 218.43 13.29L218.30 13.29C218.12 13.30 218.02 13.38 218.02 13.54L218.02 13.82L219.20 13.82L219.91 13.82L221.09 13.82L221.09 13.54C221.09 13.38 221.00 13.30 220.82 13.29L220.68 13.29C220.61 13.29 220.51 13.27 220.37 13.27C220.23 13.27 220.08 13.26 219.91 13.26L219.91 9.73L223.23 4.47C223.34 4.47 223.51 4.45 223.75 4.44C223.93 4.42 224.03 4.34 224.03 4.19L224.03 3.92Z"></path></g></svg>