<svg data-v-423bf9ae="" xmlns="http://www.w3.org/2000/svg" viewBox="0 0 319.71506060858 60" class="font"><g data-v-423bf9ae="" id="b0e0d261-16ef-42d2-b20c-6aa83d83e025" fill="white" transform="matrix(5.6980053264473165,0,0,5.6980053264473165,-4.216525375259437,-22.735042022120943)"><path d="M0.74 14.35L7.50 14.35L7.50 12.01L6.73 12.01L6.73 13.80L2.77 13.80L2.77 5.08L3.89 5.08L3.89 4.58L0.74 4.58L0.74 5.08L1.86 5.08L1.86 13.85L0.74 13.85ZM12.19 14.52C13.71 14.52 14.60 13.61 14.98 12.71L14.60 12.49C14.20 13.24 13.51 13.85 12.32 13.85C10.89 13.85 9.94 12.84 9.94 11.06L9.94 10.63L15.13 10.63L15.13 10.37C15.13 8.41 14 7.01 12.17 7.01C10.30 7.01 8.97 8.47 8.97 10.77C8.97 13.13 10.21 14.52 12.19 14.52ZM9.94 10.05C9.94 8.58 10.77 7.53 12.17 7.53C13.54 7.53 14.21 8.61 14.21 10.04L14.21 10.14L9.94 10.14ZM18.51 14.41C19.07 14.41 19.89 14.32 20.24 14.20L20.24 13.80L18.31 13.80L18.31 7.73L20.24 7.73L20.24 7.18L18.31 7.18L18.31 5.25L17.81 5.25L17.58 6.58C17.50 7.00 17.36 7.18 16.67 7.18L16.48 7.18L16.48 7.73L17.44 7.73L17.44 13.40C17.44 14.14 17.70 14.41 18.51 14.41ZM22.41 7.74L22.75 7.74L22.97 5.31L22.97 3.99L22.19 3.99L22.19 5.31ZM27.68 14.52C29.26 14.52 30.21 13.68 30.21 12.47C30.21 11.26 29.46 10.67 28.08 10.36L27.34 10.21C26.46 10.01 25.93 9.60 25.93 8.81C25.93 7.97 26.57 7.56 27.62 7.56C28.73 7.56 29.33 7.97 29.33 8.79L29.33 9.30L30.00 9.30L30.00 7.18L29.33 7.18L29.33 7.83L29.29 7.83C29.08 7.38 28.48 7.01 27.51 7.01C26.08 7.01 25.12 7.73 25.12 8.95C25.12 10.18 25.87 10.78 27.20 11.06L27.97 11.23C28.88 11.42 29.37 11.84 29.37 12.63C29.37 13.54 28.70 13.97 27.54 13.97C26.36 13.97 25.73 13.47 25.73 12.60L25.73 12.24L25.06 12.24L25.06 14.35L25.73 14.35L25.73 13.61L25.77 13.61C26.03 14.08 26.70 14.52 27.68 14.52ZM38.23 14.52C39.75 14.52 40.64 13.61 41.02 12.71L40.64 12.49C40.24 13.24 39.55 13.85 38.36 13.85C36.93 13.85 35.98 12.84 35.98 11.06L35.98 10.63L41.17 10.63L41.17 10.37C41.17 8.41 40.04 7.01 38.21 7.01C36.34 7.01 35.01 8.47 35.01 10.77C35.01 13.13 36.25 14.52 38.23 14.52ZM35.98 10.05C35.98 8.58 36.81 7.53 38.21 7.53C39.58 7.53 40.25 8.61 40.25 10.04L40.25 10.14L35.98 10.14ZM44.87 14.52C46.20 14.52 46.79 13.86 47.05 13.22L47.11 13.22L47.11 13.55C47.11 14.15 47.43 14.49 48.09 14.49C48.45 14.49 48.86 14.39 49.06 14.27L49.06 13.89L47.95 13.89L47.95 9.23C47.95 7.81 47.03 7.01 45.53 7.01C43.97 7.01 42.98 7.71 42.98 8.44C42.98 8.86 43.23 9.10 43.61 9.10C44.00 9.10 44.25 8.86 44.25 8.46C44.25 8.13 44.06 7.95 43.85 7.85L43.85 7.83C44.13 7.64 44.62 7.52 45.26 7.52C46.45 7.52 47.08 8.16 47.08 9.35L47.08 10.49L45.85 10.49C43.53 10.49 42.66 11.20 42.66 12.59C42.66 13.76 43.48 14.52 44.87 14.52ZM45.19 13.93C44.17 13.93 43.60 13.45 43.60 12.70L43.60 12.39C43.60 11.45 44.16 10.93 45.96 10.93L47.08 10.93L47.08 12.35C47.08 13.33 46.26 13.93 45.19 13.93ZM52.07 14.41C52.63 14.41 53.45 14.32 53.80 14.20L53.80 13.80L51.87 13.80L51.87 7.73L53.80 7.73L53.80 7.18L51.87 7.18L51.87 5.25L51.37 5.25L51.14 6.58C51.06 7.00 50.92 7.18 50.23 7.18L50.04 7.18L50.04 7.73L51.00 7.73L51.00 13.40C51.00 14.14 51.25 14.41 52.07 14.41ZM56.13 14.48C56.57 14.48 56.85 14.17 56.85 13.78L56.85 13.72C56.85 13.33 56.57 13.02 56.14 13.02C55.69 13.02 55.41 13.33 55.41 13.72L55.41 13.78C55.41 14.17 55.69 14.48 56.13 14.48ZM55.94 11.82L56.32 11.82L56.57 7.85L56.57 4.58L55.69 4.58L55.69 7.85Z"></path></g></svg>